{
	"asset":{
		"version":"2.0",
		"generator":"Maxon Cinema 4D 2025.0.2 (#200000219)"
	},
	"scenes":[{
		"nodes":[0,
		1,
		2,
		3,
		4,
		5,
		6,
		7,
		8]
	}],
	"nodes":[{
		"name":"Cube.008_48",
		"translation":[2.7407314777374269,
		0.20376384258270265,
		-1.0661221742630005],
		"rotation":[0.0,
		0.0,
		0.0,
		-1.0],
		"scale":[0.7443413138389587,
		0.20242109894752503,
		0.9367611408233643],
		"children":[9]
	},
	{
		"name":"Cube.007_47",
		"translation":[2.7407314777374269,
		0.6138471961021423,
		-1.0661221742630005],
		"rotation":[0.0,
		0.0,
		0.0,
		-1.0],
		"scale":[0.7443413138389587,
		0.20242109894752503,
		0.9367611408233643],
		"children":[10]
	},
	{
		"name":"Cube.006_46",
		"translation":[2.7407314777374269,
		1.0252397060394288,
		-1.0661221742630005],
		"rotation":[0.0,
		0.0,
		0.0,
		-1.0],
		"scale":[0.7443413138389587,
		0.20242109894752503,
		0.9367611408233643],
		"children":[11]
	},
	{
		"name":"Cube.005_45",
		"translation":[2.7407314777374269,
		1.4353231191635132,
		-1.0661221742630005],
		"rotation":[0.0,
		0.0,
		0.0,
		-1.0],
		"scale":[0.7443413138389587,
		0.20242109894752503,
		0.9367611408233643],
		"children":[12]
	},
	{
		"name":"Cube.004_44",
		"translation":[-2.731670618057251,
		0.20376384258270265,
		-1.0661221742630005],
		"rotation":[0.0,
		0.0,
		0.0,
		-1.0],
		"scale":[0.7443413138389587,
		0.20242109894752503,
		0.9367611408233643],
		"children":[13]
	},
	{
		"name":"Cube.003_43",
		"translation":[-2.731670618057251,
		0.6138471961021423,
		-1.0661221742630005],
		"rotation":[0.0,
		0.0,
		0.0,
		-1.0],
		"scale":[0.7443413138389587,
		0.20242109894752503,
		0.9367611408233643],
		"children":[14]
	},
	{
		"name":"Cube.002_42",
		"translation":[-2.731670618057251,
		1.0252397060394288,
		-1.0661221742630005],
		"rotation":[0.0,
		0.0,
		0.0,
		-1.0],
		"scale":[0.7443413138389587,
		0.20242109894752503,
		0.9367611408233643],
		"children":[15]
	},
	{
		"name":"Cube.001_41",
		"translation":[-2.731670618057251,
		1.4353231191635132,
		-1.0661221742630005],
		"rotation":[0.0,
		0.0,
		0.0,
		-1.0],
		"scale":[0.7443413138389587,
		0.20242109894752503,
		0.9367611408233643],
		"children":[16]
	},
	{
		"name":"Cube_40",
		"translation":[0.0,
		1.6979979276657105,
		-1.0041040182113648],
		"rotation":[0.0,
		0.0,
		7.450580596923828e-9,
		-1.0],
		"scale":[3.5686581134796144,
		0.0556148923933506,
		1.0],
		"children":[17]
	},
	{
		"name":"Object_86",
		"mesh":0
	},
	{
		"name":"Object_84",
		"mesh":1
	},
	{
		"name":"Object_82",
		"mesh":2
	},
	{
		"name":"Object_80",
		"mesh":3
	},
	{
		"name":"Object_78",
		"mesh":4
	},
	{
		"name":"Object_76",
		"mesh":5
	},
	{
		"name":"Object_74",
		"mesh":6
	},
	{
		"name":"Object_72",
		"mesh":7
	},
	{
		"name":"Object_70",
		"mesh":8
	}],
	"meshes":[{
		"primitives":[{
			"attributes":{
				"POSITION":1,
				"NORMAL":2,
				"TEXCOORD_0":3
			},
			"indices":0
		}],
		"name":"Object_86"
	},
	{
		"primitives":[{
			"attributes":{
				"POSITION":5,
				"NORMAL":6,
				"TEXCOORD_0":7
			},
			"indices":4
		}],
		"name":"Object_84"
	},
	{
		"primitives":[{
			"attributes":{
				"POSITION":9,
				"NORMAL":10,
				"TEXCOORD_0":11
			},
			"indices":8
		}],
		"name":"Object_82"
	},
	{
		"primitives":[{
			"attributes":{
				"POSITION":13,
				"NORMAL":14,
				"TEXCOORD_0":15
			},
			"indices":12
		}],
		"name":"Object_80"
	},
	{
		"primitives":[{
			"attributes":{
				"POSITION":17,
				"NORMAL":18,
				"TEXCOORD_0":19
			},
			"indices":16
		}],
		"name":"Object_78"
	},
	{
		"primitives":[{
			"attributes":{
				"POSITION":21,
				"NORMAL":22,
				"TEXCOORD_0":23
			},
			"indices":20
		}],
		"name":"Object_76"
	},
	{
		"primitives":[{
			"attributes":{
				"POSITION":25,
				"NORMAL":26,
				"TEXCOORD_0":27
			},
			"indices":24
		}],
		"name":"Object_74"
	},
	{
		"primitives":[{
			"attributes":{
				"POSITION":29,
				"NORMAL":30,
				"TEXCOORD_0":31
			},
			"indices":28
		}],
		"name":"Object_72"
	},
	{
		"primitives":[{
			"attributes":{
				"POSITION":33,
				"NORMAL":34,
				"TEXCOORD_0":35
			},
			"indices":32
		}],
		"name":"Object_70"
	}],
	"accessors":[{
		"bufferView":0,
		"type":"SCALAR",
		"componentType":5123,
		"count":36,
		"byteOffset":0,
		"min":[0],
		"max":[35]
	},
	{
		"bufferView":1,
		"type":"VEC3",
		"componentType":5126,
		"count":36,
		"byteOffset":0,
		"min":[-1.0,
		-1.0,
		-1.0],
		"max":[1.0,
		1.0,
		1.0]
	},
	{
		"bufferView":1,
		"type":"VEC3",
		"componentType":5126,
		"count":36,
		"byteOffset":12,
		"min":[-1.0,
		-1.0,
		-1.0],
		"max":[1.0,
		1.0,
		1.0]
	},
	{
		"bufferView":1,
		"type":"VEC2",
		"componentType":5126,
		"count":36,
		"byteOffset":24,
		"min":[0.125,
		0.000030517578125],
		"max":[0.875,
		1.0]
	},
	{
		"bufferView":2,
		"type":"SCALAR",
		"componentType":5123,
		"count":36,
		"byteOffset":0,
		"min":[0],
		"max":[35]
	},
	{
		"bufferView":3,
		"type":"VEC3",
		"componentType":5126,
		"count":36,
		"byteOffset":0,
		"min":[-1.0,
		-1.0,
		-1.0],
		"max":[1.0,
		1.0,
		1.0]
	},
	{
		"bufferView":3,
		"type":"VEC3",
		"componentType":5126,
		"count":36,
		"byteOffset":12,
		"min":[-1.0,
		-1.0,
		-1.0],
		"max":[1.0,
		1.0,
		1.0]
	},
	{
		"bufferView":3,
		"type":"VEC2",
		"componentType":5126,
		"count":36,
		"byteOffset":24,
		"min":[0.125,
		0.000030517578125],
		"max":[0.875,
		1.0]
	},
	{
		"bufferView":4,
		"type":"SCALAR",
		"componentType":5123,
		"count":36,
		"byteOffset":0,
		"min":[0],
		"max":[35]
	},
	{
		"bufferView":5,
		"type":"VEC3",
		"componentType":5126,
		"count":36,
		"byteOffset":0,
		"min":[-1.0,
		-1.0,
		-1.0],
		"max":[1.0,
		1.0,
		1.0]
	},
	{
		"bufferView":5,
		"type":"VEC3",
		"componentType":5126,
		"count":36,
		"byteOffset":12,
		"min":[-1.0,
		-1.0,
		-1.0],
		"max":[1.0,
		1.0,
		1.0]
	},
	{
		"bufferView":5,
		"type":"VEC2",
		"componentType":5126,
		"count":36,
		"byteOffset":24,
		"min":[0.125,
		0.000030517578125],
		"max":[0.875,
		1.0]
	},
	{
		"bufferView":6,
		"type":"SCALAR",
		"componentType":5123,
		"count":36,
		"byteOffset":0,
		"min":[0],
		"max":[35]
	},
	{
		"bufferView":7,
		"type":"VEC3",
		"componentType":5126,
		"count":36,
		"byteOffset":0,
		"min":[-1.0,
		-1.0,
		-1.0],
		"max":[1.0,
		1.0,
		1.0]
	},
	{
		"bufferView":7,
		"type":"VEC3",
		"componentType":5126,
		"count":36,
		"byteOffset":12,
		"min":[-1.0,
		-1.0,
		-1.0],
		"max":[1.0,
		1.0,
		1.0]
	},
	{
		"bufferView":7,
		"type":"VEC2",
		"componentType":5126,
		"count":36,
		"byteOffset":24,
		"min":[0.125,
		0.000030517578125],
		"max":[0.875,
		1.0]
	},
	{
		"bufferView":8,
		"type":"SCALAR",
		"componentType":5123,
		"count":36,
		"byteOffset":0,
		"min":[0],
		"max":[35]
	},
	{
		"bufferView":9,
		"type":"VEC3",
		"componentType":5126,
		"count":36,
		"byteOffset":0,
		"min":[-1.0,
		-1.0,
		-1.0],
		"max":[1.0,
		1.0,
		1.0]
	},
	{
		"bufferView":9,
		"type":"VEC3",
		"componentType":5126,
		"count":36,
		"byteOffset":12,
		"min":[-1.0,
		-1.0,
		-1.0],
		"max":[1.0,
		1.0,
		1.0]
	},
	{
		"bufferView":9,
		"type":"VEC2",
		"componentType":5126,
		"count":36,
		"byteOffset":24,
		"min":[0.125,
		0.000030517578125],
		"max":[0.875,
		1.0]
	},
	{
		"bufferView":10,
		"type":"SCALAR",
		"componentType":5123,
		"count":36,
		"byteOffset":0,
		"min":[0],
		"max":[35]
	},
	{
		"bufferView":11,
		"type":"VEC3",
		"componentType":5126,
		"count":36,
		"byteOffset":0,
		"min":[-1.0,
		-1.0,
		-1.0],
		"max":[1.0,
		1.0,
		1.0]
	},
	{
		"bufferView":11,
		"type":"VEC3",
		"componentType":5126,
		"count":36,
		"byteOffset":12,
		"min":[-1.0,
		-1.0,
		-1.0],
		"max":[1.0,
		1.0,
		1.0]
	},
	{
		"bufferView":11,
		"type":"VEC2",
		"componentType":5126,
		"count":36,
		"byteOffset":24,
		"min":[0.125,
		0.000030517578125],
		"max":[0.875,
		1.0]
	},
	{
		"bufferView":12,
		"type":"SCALAR",
		"componentType":5123,
		"count":36,
		"byteOffset":0,
		"min":[0],
		"max":[35]
	},
	{
		"bufferView":13,
		"type":"VEC3",
		"componentType":5126,
		"count":36,
		"byteOffset":0,
		"min":[-1.0,
		-1.0,
		-1.0],
		"max":[1.0,
		1.0,
		1.0]
	},
	{
		"bufferView":13,
		"type":"VEC3",
		"componentType":5126,
		"count":36,
		"byteOffset":12,
		"min":[-1.0,
		-1.0,
		-1.0],
		"max":[1.0,
		1.0,
		1.0]
	},
	{
		"bufferView":13,
		"type":"VEC2",
		"componentType":5126,
		"count":36,
		"byteOffset":24,
		"min":[0.125,
		0.000030517578125],
		"max":[0.875,
		1.0]
	},
	{
		"bufferView":14,
		"type":"SCALAR",
		"componentType":5123,
		"count":36,
		"byteOffset":0,
		"min":[0],
		"max":[35]
	},
	{
		"bufferView":15,
		"type":"VEC3",
		"componentType":5126,
		"count":36,
		"byteOffset":0,
		"min":[-1.0,
		-1.0,
		-1.0],
		"max":[1.0,
		1.0,
		1.0]
	},
	{
		"bufferView":15,
		"type":"VEC3",
		"componentType":5126,
		"count":36,
		"byteOffset":12,
		"min":[-1.0,
		-1.0,
		-1.0],
		"max":[1.0,
		1.0,
		1.0]
	},
	{
		"bufferView":15,
		"type":"VEC2",
		"componentType":5126,
		"count":36,
		"byteOffset":24,
		"min":[0.125,
		0.000030517578125],
		"max":[0.875,
		1.0]
	},
	{
		"bufferView":16,
		"type":"SCALAR",
		"componentType":5123,
		"count":36,
		"byteOffset":0,
		"min":[0],
		"max":[35]
	},
	{
		"bufferView":17,
		"type":"VEC3",
		"componentType":5126,
		"count":36,
		"byteOffset":0,
		"min":[-1.0,
		-1.0,
		-1.0],
		"max":[1.0,
		1.0,
		1.0]
	},
	{
		"bufferView":17,
		"type":"VEC3",
		"componentType":5126,
		"count":36,
		"byteOffset":12,
		"min":[-1.0,
		-1.0,
		-1.0],
		"max":[1.0,
		1.0,
		1.0]
	},
	{
		"bufferView":17,
		"type":"VEC2",
		"componentType":5126,
		"count":36,
		"byteOffset":24,
		"min":[0.125,
		0.000030517578125],
		"max":[0.875,
		1.0]
	}],
	"bufferViews":[{
		"buffer":0,
		"byteOffset":0,
		"byteLength":72,
		"target":34963
	},
	{
		"buffer":0,
		"byteOffset":72,
		"byteLength":1152,
		"target":34962,
		"byteStride":32
	},
	{
		"buffer":1,
		"byteOffset":0,
		"byteLength":72,
		"target":34963
	},
	{
		"buffer":1,
		"byteOffset":72,
		"byteLength":1152,
		"target":34962,
		"byteStride":32
	},
	{
		"buffer":2,
		"byteOffset":0,
		"byteLength":72,
		"target":34963
	},
	{
		"buffer":2,
		"byteOffset":72,
		"byteLength":1152,
		"target":34962,
		"byteStride":32
	},
	{
		"buffer":3,
		"byteOffset":0,
		"byteLength":72,
		"target":34963
	},
	{
		"buffer":3,
		"byteOffset":72,
		"byteLength":1152,
		"target":34962,
		"byteStride":32
	},
	{
		"buffer":4,
		"byteOffset":0,
		"byteLength":72,
		"target":34963
	},
	{
		"buffer":4,
		"byteOffset":72,
		"byteLength":1152,
		"target":34962,
		"byteStride":32
	},
	{
		"buffer":5,
		"byteOffset":0,
		"byteLength":72,
		"target":34963
	},
	{
		"buffer":5,
		"byteOffset":72,
		"byteLength":1152,
		"target":34962,
		"byteStride":32
	},
	{
		"buffer":6,
		"byteOffset":0,
		"byteLength":72,
		"target":34963
	},
	{
		"buffer":6,
		"byteOffset":72,
		"byteLength":1152,
		"target":34962,
		"byteStride":32
	},
	{
		"buffer":7,
		"byteOffset":0,
		"byteLength":72,
		"target":34963
	},
	{
		"buffer":7,
		"byteOffset":72,
		"byteLength":1152,
		"target":34962,
		"byteStride":32
	},
	{
		"buffer":8,
		"byteOffset":0,
		"byteLength":72,
		"target":34963
	},
	{
		"buffer":8,
		"byteOffset":72,
		"byteLength":1152,
		"target":34962,
		"byteStride":32
	}],
	"buffers":[{
		"uri":"data:application/octet-stream;base64,",
		"byteLength":1224
	},
	{
		"uri":"data:application/octet-stream;base64,",
		"byteLength":1224
	},
	{
		"uri":"data:application/octet-stream;base64,",
		"byteLength":1224
	},
	{
		"uri":"data:application/octet-stream;base64,",
		"byteLength":1224
	},
	{
		"uri":"data:application/octet-stream;base64,",
		"byteLength":1224
	},
	{
		"uri":"data:application/octet-stream;base64,",
		"byteLength":1224
	},
	{
		"uri":"data:application/octet-stream;base64,",
		"byteLength":1224
	},
	{
		"uri":"data:application/octet-stream;base64,",
		"byteLength":1224
	},
	{
		"uri":"data:application/octet-stream;base64,",
		"byteLength":1224
	}]
}